<?xml version="1.0" encoding="UTF-8" standalone="no"?>
<svg width="431px" height="490px" viewBox="0 0 431 490" version="1.1" xmlns="http://www.w3.org/2000/svg" xmlns:xlink="http://www.w3.org/1999/xlink" xmlns:sketch="http://www.bohemiancoding.com/sketch/ns">
    <!-- Generator: Sketch 3.4 (15575) - http://www.bohemiancoding.com/sketch -->
    <title>Group</title>
    <desc>Created with Sketch.</desc>
    <defs></defs>
    <g id="Page-1" stroke="none" stroke-width="1" fill="none" fill-rule="evenodd" sketch:type="MSPage">
        <g id="Group" sketch:type="MSLayerGroup" fill="#FFFFFF">
            <path d="M144.670663,82.7238507 L187.271131,117.36135 L187.271131,162.075909 C187.271131,175.409814 198.069631,186.214875 211.395441,186.214875 C224.72125,186.214875 235.519751,175.409814 235.519751,162.075909 L235.519751,120.177563 L281.604841,82.7238507 C291.943831,74.3135286 293.513826,59.102149 285.10861,48.7568782 C276.72254,38.4116074 261.520396,36.8598167 251.181406,45.2509808 L235.519751,57.9718324 L235.519751,24.1389652 C235.519751,10.8242185 224.72125,0 211.395441,0 C198.069631,0 187.271131,10.8242185 187.271131,24.1389652 L187.271131,55.1556197 L175.094098,45.2509808 C164.755108,36.8406588 149.57211,38.4116074 141.166894,48.7568782 C132.761678,59.102149 134.331673,74.3135286 144.670663,82.7238507" id="Fill-24" sketch:type="MSShapeGroup"></path>
            <path d="M281.602926,405.32771 L235.536982,367.873998 L235.536982,327.604074 C235.536982,314.289327 224.719335,303.465109 211.412672,303.465109 C198.086863,303.465109 187.288362,314.289327 187.288362,327.604074 L187.288362,370.690211 L144.668748,405.32771 C134.329758,413.738032 132.759764,428.949412 141.16498,439.294683 C149.570195,449.639954 164.753194,451.191744 175.092184,442.80058 L187.288362,432.895941 L187.288362,465.541018 C187.288362,478.874923 198.086863,489.679983 211.412672,489.679983 C224.719335,489.679983 235.536982,478.874923 235.536982,465.541018 L235.536982,430.079729 L251.179491,442.80058 C255.65972,446.440583 261.020678,448.20311 266.381636,448.20311 C273.389173,448.20311 280.339272,445.157003 285.106695,439.294683 C293.511911,428.949412 291.941916,413.738032 281.602926,405.32771" id="Fill-26" sketch:type="MSShapeGroup"></path>
            <path d="M155.572553,306.306227 C167.117759,299.639274 171.061892,284.868526 164.398987,273.335465 C157.736083,261.783246 142.993449,257.817559 131.448244,264.503669 L93.481175,286.420317 L41.0969593,266.400302 C28.6518788,261.649141 14.7133887,267.894619 9.96511181,280.34726 C5.19768867,292.799901 11.4393752,306.746858 23.8844557,311.49802 L39.6418422,317.532761 L12.0712024,333.452983 C0.525996923,340.139094 -3.41813628,354.890684 3.22562207,366.442903 C7.70585105,374.182698 15.8047265,378.512385 24.1525036,378.512385 C28.249807,378.512385 32.385403,377.477858 36.1955122,375.274699 L64.9149287,358.68395 L61.9281094,377.420384 C59.8220189,390.601026 68.7824768,402.977035 81.9359696,405.084405 C83.2187702,405.295142 84.5015708,405.390931 85.7652251,405.390931 C97.4061619,405.390931 107.668567,396.942294 109.564048,385.06439 L118.773408,327.571505 L155.572553,306.306227 Z" id="Fill-28" sketch:type="MSShapeGroup"></path>
            <path d="M274.710266,181.731924 C263.165061,188.398876 259.220928,203.169624 265.883832,214.702685 C270.344915,222.461638 278.462937,226.791326 286.791568,226.791326 C290.888871,226.791326 295.043613,225.737641 298.834576,223.534481 L334.427506,202.978045 L388.783789,223.745218 C391.617438,224.837219 394.527672,225.354482 397.399614,225.354482 C407.106776,225.354482 416.258697,219.434689 419.934782,209.817418 C424.683059,197.364778 418.441373,183.41782 405.996292,178.647501 L388.266839,171.884759 L418.211617,154.585167 C429.756823,147.899057 433.700956,133.147467 427.057198,121.595248 C420.394293,110.043029 405.632513,106.0965 394.087308,112.763452 L365.291306,129.392517 L367.971785,112.725136 C370.077875,99.5636526 361.117417,87.1876434 347.963925,85.0802735 C334.829578,82.9537456 322.42279,91.9388048 320.3167,105.100288 L311.451973,160.504961 L274.710266,181.731924 Z" id="Fill-30" sketch:type="MSShapeGroup"></path>
            <path d="M418.217361,334.884079 L389.478799,318.274172 L407.227398,311.51143 C419.672478,306.760269 425.895019,292.794153 421.146742,280.341513 C416.398465,267.888872 402.459975,261.643394 389.995748,266.413713 L335.639466,287.180886 L298.84032,265.915607 C287.295115,259.248655 272.533335,263.214342 265.87043,274.747403 C259.226672,286.299622 263.170805,301.051212 274.71601,307.718164 L312.683079,329.65397 L321.528659,385.058643 C323.424141,396.936546 333.686545,405.385184 345.327482,405.385184 C346.591137,405.385184 347.873937,405.289395 349.175884,405.078658 C362.329377,402.971288 371.289835,390.595278 369.183744,377.433795 L366.503265,360.766414 L394.093051,376.686637 C397.884014,378.889796 402.038757,379.943481 406.13606,379.943481 C414.464691,379.943481 422.582713,375.613794 427.043795,367.854841 C433.7067,356.321779 429.762567,341.551032 418.217361,334.884079" id="Fill-32" sketch:type="MSShapeGroup"></path>
            <path d="M12.0654585,155.997105 L40.8614601,172.62617 L25.1040736,178.660911 C12.6589931,183.412073 6.41730656,197.35903 11.1655834,209.811671 C14.8416687,219.428941 23.9935895,225.348735 33.7007522,225.348735 C36.5726939,225.348735 39.4829281,224.831472 42.3165772,223.758629 L94.7007929,203.738614 L131.4425,224.965577 C135.252609,227.168736 139.388205,228.203264 143.485508,228.203264 C151.814139,228.203264 159.932161,223.873576 164.41239,216.133781 C171.056148,204.581562 167.112015,189.829972 155.56681,183.16302 L119.973879,162.587426 L110.783666,105.094541 C108.677576,91.9330575 96.3090802,82.9671561 83.1364412,85.0745261 C69.9829484,87.1818961 61.0224905,99.5579052 63.128581,112.719389 L66.1345466,131.494139 L36.1897683,114.194548 C24.6445629,107.508437 9.9019291,111.474125 3.23902447,123.026344 C-3.42388016,134.559405 0.52025304,149.330153 12.0654585,155.997105" id="Fill-34" sketch:type="MSShapeGroup"></path>
        </g>
    </g>
</svg>