<?xml version="1.0" encoding="UTF-8" standalone="no"?>
<svg width="293px" height="470px" viewBox="0 0 293 470" version="1.1" xmlns="http://www.w3.org/2000/svg" xmlns:xlink="http://www.w3.org/1999/xlink" xmlns:sketch="http://www.bohemiancoding.com/sketch/ns">
    <!-- Generator: Sketch 3.4 (15575) - http://www.bohemiancoding.com/sketch -->
    <title>Fill 38</title>
    <desc>Created with Sketch.</desc>
    <defs></defs>
    <g id="Page-1" stroke="none" stroke-width="1" fill="none" fill-rule="evenodd" sketch:type="MSPage">
        <path d="M290.937355,193.155104 C289.061839,189.591624 285.385828,187.341005 281.353469,187.341005 L157.475646,187.341005 L201.6628,13.4994403 C202.956906,8.43554751 200.424959,3.16534795 195.661149,0.989749553 C190.916094,-1.204604 185.270791,0.352074162 182.288721,4.64700548 L1.93911629,264.143379 C-0.367768218,267.444287 -0.630340438,271.757974 1.22642026,275.321454 C3.10193612,278.903689 6.79670236,281.135553 10.8290615,281.135553 L130.899587,281.135553 L89.4506862,456.683837 C88.250356,461.74773 90.8385679,466.942909 95.583623,469.062242 C97.0090151,469.699917 98.5094278,470 99.9910853,470 C103.442034,470 106.799208,468.349546 108.88103,465.348721 L290.243414,204.351934 C292.531543,201.032271 292.812871,196.718584 290.937355,193.155104" id="Fill-38" fill="#FFFFFF" sketch:type="MSShapeGroup"></path>
    </g>
</svg>